<svg width="22" height="20" viewBox="0 0 22 20" fill="none" xmlns="http://www.w3.org/2000/svg">
<path d="M2 0.5C1.17157 0.5 0.5 1.17157 0.5 2C0.5 2.82843 1.17157 3.5 2 3.5V0.5ZM20 3.5C20.8284 3.5 21.5 2.82843 21.5 2C21.5 1.17157 20.8284 0.5 20 0.5V3.5ZM2 8.5C1.17157 8.5 0.5 9.17157 0.5 10C0.5 10.8284 1.17157 11.5 2 11.5V8.5ZM20 11.5C20.8284 11.5 21.5 10.8284 21.5 10C21.5 9.17157 20.8284 8.5 20 8.5V11.5ZM2 16.5C1.17157 16.5 0.5 17.1716 0.5 18C0.5 18.8284 1.17157 19.5 2 19.5V16.5ZM20 19.5C20.8284 19.5 21.5 18.8284 21.5 18C21.5 17.1716 20.8284 16.5 20 16.5V19.5ZM2 3.5H20V0.5H2V3.5ZM2 11.5H20V8.5H2V11.5ZM2 19.5H20V16.5H2V19.5Z" fill="white"/>
</svg>
